<svg id="Layer_3" data-name="Layer 3" xmlns="http://www.w3.org/2000/svg" viewBox="0 0 365 105"><defs><style>.cls-1,.cls-2{fill:#fff;stroke:#fff;stroke-miterlimit:10;}.cls-2{font-size:23.52px;font-family:Molde-SemiExpanded-Regular, Molde;}.cls-2,.cls-5{letter-spacing:0em;}.cls-3{letter-spacing:0.01em;}.cls-4{letter-spacing:-0.01em;}.cls-6{letter-spacing:-0.16em;}</style></defs><title>cbet-logo-wh</title><path class="cls-1" d="M167,54.16m-2.94-.11,1.61-3.83c0-.06,0-.14-.08-.14"/><path class="cls-1" d="M76.61,50.59,45.35,15A47,47,0,0,0,39.9,9.74h4.49a40.78,40.78,0,0,1,32.86,16.6C81.51,32.1,86.09,37.62,90.82,43l5.25,6A48.3,48.3,0,0,0,32.42,4.83,45.25,45.25,0,0,0,18.09.16h0L62.7,50.59Z"/><path class="cls-1" d="M94.08,53.93c-6,6.8-11.58,13.92-17,21.16A40.77,40.77,0,0,1,44.39,91.42H39.9a45.39,45.39,0,0,0,5.45-5.21L76.61,50.59H62.7L18.09,101h0a45.5,45.5,0,0,0,14.33-4.67A48.3,48.3,0,0,0,96.08,51.64Z"/><path class="cls-1" d="M94,50.58,72.28,25.83A31.55,31.55,0,0,0,53.34,15.54l31,35.05Z"/><path class="cls-1" d="M84.33,50.59l-31,35A31.49,31.49,0,0,0,72.28,75.33L94,50.59Z"/><path class="cls-1" d="M3.55,50.59A40.83,40.83,0,0,1,26.29,14.22l-3.9-4.41A48.28,48.28,0,0,0-.43,50.59Z"/><path class="cls-1" d="M3.55,50.83v-.24h-4v.24a48.21,48.21,0,0,0,22,40.51L25.43,87A40.83,40.83,0,0,1,3.55,50.83Z"/><text class="cls-2" transform="translate(98.72 36.61) scale(0.93 1)">College Of <tspan class="cls-3"><tspan x="0" y="22.98">Biomedical Equipme</tspan><tspan class="cls-4" x="253.37" y="22.98">n</tspan><tspan class="cls-5" x="268.64" y="22.98">t </tspan></tspan><tspan class="cls-6"><tspan x="0" y="45.96">T</tspan><tspan class="cls-5" x="12.92" y="45.96">echnology</tspan></tspan></text><text/><text/></svg>