<svg xmlns="http://www.w3.org/2000/svg" viewBox="0 0 374.43 109.54"><defs><style>.cls-1,.cls-2{fill:#fff;stroke:#fff;stroke-miterlimit:10;}.cls-2{font-size:24.23px;font-family:Molde-SemiExpanded-Regular, Molde;letter-spacing:0em;}.cls-3{letter-spacing:0.01em;}.cls-4{letter-spacing:-0.01em;}.cls-5{letter-spacing:0.01em;}.cls-6{letter-spacing:-0.16em;}</style></defs><title>cbet-logo-white</title><g id="Layer_2" data-name="Layer 2"><g id="Layer_3" data-name="Layer 3"><path class="cls-1" d="M166.6,50.76c0-.06,0-.14-.08-.14"/><path class="cls-1" d="M77.54,51.13,46.28,15.49a46.1,46.1,0,0,0-5.45-5.2h4.49a40.75,40.75,0,0,1,32.86,16.6C82.44,32.64,87,38.16,91.75,43.55l5.25,6A48.3,48.3,0,0,0,33.35,5.37,45.25,45.25,0,0,0,19,.7h0L63.63,51.13Z"/><path class="cls-1" d="M95,54.47c-6,6.81-11.58,13.92-17,21.16A40.79,40.79,0,0,1,45.32,92H40.83a47,47,0,0,0,5.45-5.21L77.54,51.13H63.63L19,101.54h0a45.25,45.25,0,0,0,14.33-4.67A48.3,48.3,0,0,0,97,52.18Z"/><path class="cls-1" d="M94.93,51.12,73.21,26.37A31.49,31.49,0,0,0,54.27,16.09l31,35Z"/><path class="cls-1" d="M85.26,51.13l-31,35A31.55,31.55,0,0,0,73.21,75.87L94.92,51.13Z"/><path class="cls-1" d="M4.48,51.13A40.87,40.87,0,0,1,27.22,14.76l-3.9-4.4A48.25,48.25,0,0,0,.5,51.13Z"/><path class="cls-1" d="M4.48,51.37v-.24H.5v.24a48.24,48.24,0,0,0,22,40.52l3.83-4.34A40.85,40.85,0,0,1,4.48,51.37Z"/><text class="cls-2" transform="translate(99.65 35.62) scale(0.93 1)">College Of <tspan class="cls-3"><tspan x="0" y="23.67">Biomedical Equipme</tspan><tspan class="cls-4" x="260.99" y="23.67">n</tspan><tspan class="cls-5" x="276.71" y="23.67">t </tspan></tspan><tspan class="cls-6"><tspan x="0" y="47.34">T</tspan><tspan class="cls-3" x="13.3" y="47.34">echnology</tspan></tspan></text><text/><text/></g></g></svg>