<svg xmlns="http://www.w3.org/2000/svg" viewBox="0 0 270 78"><defs><style>.cls-1{isolation:isolate;}.cls-2{mix-blend-mode:hard-light;}.cls-3,.cls-4{fill:#fff;stroke:#fff;stroke-miterlimit:10;}.cls-4{font-size:15.67px;font-family:Molde-SemiExpanded-Regular, Molde;}.cls-5{letter-spacing:0em;}.cls-6{letter-spacing:-0.01em;}.cls-7{letter-spacing:0em;}.cls-8{letter-spacing:-0.01em;}.cls-9{letter-spacing:-0.16em;}.cls-10{font-size:10.45px;font-family:MyriadPro-Regular, Myriad Pro;}</style></defs><title>logo</title><g class="cls-1"><g id="Layer_3" data-name="Layer 3"><g class="cls-2"><path class="cls-3" d="M130.41,42.23m-2.25-.08,1.23-2.92s0-.11-.06-.11"/><path class="cls-3" d="M61.39,39.51,37.52,12.3a34,34,0,0,0-4.16-4h3.43A31.12,31.12,0,0,1,61.88,21c3.25,4.4,6.75,8.62,10.36,12.73l4,4.57A36.87,36.87,0,0,0,27.65,4.57,34.72,34.72,0,0,0,16.71,1h0L50.77,39.51Z"/><path class="cls-3" d="M74.73,42.06c-4.56,5.19-8.84,10.62-13,16.15A31.13,31.13,0,0,1,36.79,70.68H33.36a34,34,0,0,0,4.16-4L61.39,39.51H50.77L16.71,78h0a34.72,34.72,0,0,0,10.94-3.57A36.88,36.88,0,0,0,76.26,40.31Z"/><path class="cls-3" d="M74.67,39.5,58.08,20.6a24,24,0,0,0-14.46-7.85L67.29,39.51Z"/><path class="cls-3" d="M67.29,39.51,43.62,66.25A24,24,0,0,0,58.08,58.4L74.66,39.51Z"/><path class="cls-3" d="M5.61,39.51A31.17,31.17,0,0,1,23,11.74L20,8.37A36.88,36.88,0,0,0,2.57,39.51Z"/><path class="cls-3" d="M5.61,39.69v-.18h-3v.18A36.83,36.83,0,0,0,19.39,70.63l2.93-3.31A31.18,31.18,0,0,1,5.61,39.69Z"/><text/><text/><text id="College_of_Biomedical_Equipment_Technology" data-name="College of  Biomedical Equipment  Technology" class="cls-4" transform="translate(78.73 25.54)"><tspan class="cls-5">College <tspan class="cls-6" x="66.37" y="0">o</tspan><tspan class="cls-7" x="76.5" y="0">f </tspan></tspan><tspan class="cls-7"><tspan x="0" y="18.8">Biomedical Equipme</tspan><tspan class="cls-8" x="168.49" y="18.8">n</tspan><tspan x="178.64" y="18.8">t </tspan></tspan><tspan class="cls-9" x="0" y="37.61">T</tspan><tspan class="cls-7" x="8.59" y="37.61">echnology</tspan><tspan class="cls-10" x="93.53" y="37.61"> </tspan></text><text/></g></g></g></svg>