<?xml version="1.0" encoding="UTF-8"?> <svg xmlns="http://www.w3.org/2000/svg" id="Layer_2" data-name="Layer 2" viewBox="0 0 200 72"><title>ACCET</title><path d="M44.6,57.44h8.87L47.31,14.68H35.11L28.64,57.44H37.4l1.45-12.88h4.5ZM39.42,39.49l1.84-16.36,1.6,16.36Z" style="fill:#32679a"></path><path d="M76.28,29.26H68.34V19.64H64.18V52.55h4.16V40.37h7.94V49c0,5.44.64,8.87-9,8.87-.82,0-1.72,0-2.62-.07-6-.24-8.31-1.22-8.58-5.44-.27-3.48-.18-7-.18-10.46,0-6.54.18-13.09.18-19.63,0-5.14.18-8.14,9-8.14,10.74,0,11.47,1.9,11.28,8.63Z" style="fill:#32679a"></path><path d="M98.39,29.26h-8V19.64H86.29V52.55h4.15V40.37h8V49c0,5.44.63,8.87-9,8.87-.81,0-1.72,0-2.62-.07-6-.24-8.31-1.22-8.58-5.44-.27-3.48-.18-7-.18-10.46,0-6.54.18-13.09.18-19.63,0-5.14.18-8.14,9-8.14,10.75,0,11.47,1.9,11.29,8.63Z" style="fill:#32679a"></path><path d="M101.56,57.44V14.62h17.36v5.32h-9.14V31.56h7.73v5h-7.73v16h9v5Z" style="fill:#32679a"></path><path d="M134.92,19.27V57.44H126.8V19.27h-5.38V14.62h18v4.65Z" style="fill:#32679a"></path><path d="M158.07,42.33a6.51,6.51,0,1,1,6.51-6.51A6.5,6.5,0,0,1,158.07,42.33Z" style="fill:#32679a"></path><path d="M171.36,34.64V14.42h-12.5A24.84,24.84,0,0,0,171.36,34.64Z" style="fill:#32679a"></path><path d="M171.36,37a24.85,24.85,0,0,0-12.5,20.23h12.5Z" style="fill:#32679a"></path><path d="M144.74,34.64a24.84,24.84,0,0,0,12.5-20.22h-12.5Z" style="fill:#32679a"></path><path d="M144.74,37V57.26h12.5A24.85,24.85,0,0,0,144.74,37Z" style="fill:#32679a"></path><circle cx="158.07" cy="35.82" r="6.51" style="fill:#32679a"></circle></svg> 